<mxfile host="65bd71144e">
    <diagram id="qVnnI8K2D0L8Njw8Rhys" name="Page-1">
        <mxGraphModel dx="2285" dy="715" grid="1" gridSize="10" guides="1" tooltips="1" connect="1" arrows="1" fold="1" page="1" pageScale="1" pageWidth="850" pageHeight="1100" math="0" shadow="0">
            <root>
                <mxCell id="0"/>
                <mxCell id="1" parent="0"/>
                <mxCell id="3" value="" style="shape=umlLifeline;participant=umlActor;perimeter=lifelinePerimeter;whiteSpace=wrap;html=1;container=1;collapsible=0;recursiveResize=0;verticalAlign=top;spacingTop=36;outlineConnect=0;size=120;fillColor=#fa6800;fontColor=#000000;strokeColor=#C73500;" parent="1" vertex="1">
                    <mxGeometry x="40" y="40" width="40" height="2060" as="geometry"/>
                </mxCell>
                <mxCell id="5" value="" style="shape=umlLifeline;participant=umlEntity;perimeter=lifelinePerimeter;whiteSpace=wrap;html=1;container=1;collapsible=0;recursiveResize=0;verticalAlign=top;spacingTop=36;outlineConnect=0;size=120;fillColor=#e51400;fontColor=#ffffff;strokeColor=#B20000;fontSize=25;fontStyle=1" parent="1" vertex="1">
                    <mxGeometry x="770" y="40" width="160" height="1960" as="geometry"/>
                </mxCell>
                <mxCell id="29" style="edgeStyle=none;html=1;fontSize=25;fontStyle=1" parent="5" target="5" edge="1">
                    <mxGeometry relative="1" as="geometry">
                        <mxPoint x="79.5" y="610" as="sourcePoint"/>
                    </mxGeometry>
                </mxCell>
                <mxCell id="12" value="&lt;font style=&quot;font-size: 25px;&quot;&gt;&lt;span style=&quot;font-size: 25px;&quot;&gt;Interface&lt;/span&gt;&lt;/font&gt;" style="text;strokeColor=none;align=center;fillColor=none;html=1;verticalAlign=middle;whiteSpace=wrap;rounded=0;fontSize=25;fontStyle=1" parent="5" vertex="1">
                    <mxGeometry y="40" width="150" height="40" as="geometry"/>
                </mxCell>
                <mxCell id="55" value="" style="html=1;points=[];perimeter=orthogonalPerimeter;fillColor=#e51400;fontColor=#ffffff;strokeColor=#B20000;fontSize=25;fontStyle=1" parent="5" vertex="1">
                    <mxGeometry x="75" y="160" width="10" height="1720" as="geometry"/>
                </mxCell>
                <mxCell id="7" value="" style="shape=umlLifeline;participant=umlEntity;perimeter=lifelinePerimeter;whiteSpace=wrap;html=1;container=1;collapsible=0;recursiveResize=0;verticalAlign=top;spacingTop=36;outlineConnect=0;size=120;fillColor=#008a00;fontColor=#ffffff;strokeColor=#005700;fontSize=25;fontStyle=1" parent="1" vertex="1">
                    <mxGeometry x="1620" y="40" width="160" height="1960" as="geometry"/>
                </mxCell>
                <mxCell id="18" value="&lt;font style=&quot;font-size: 25px;&quot;&gt;&lt;span style=&quot;font-size: 25px;&quot;&gt;Back-End&lt;/span&gt;&lt;/font&gt;" style="text;strokeColor=none;align=center;fillColor=none;html=1;verticalAlign=middle;whiteSpace=wrap;rounded=0;strokeWidth=3;fontSize=25;fontStyle=1" parent="7" vertex="1">
                    <mxGeometry x="50" y="40" width="60" height="50" as="geometry"/>
                </mxCell>
                <mxCell id="40" value="&lt;font style=&quot;font-size: 25px;&quot;&gt;&lt;span style=&quot;font-size: 25px;&quot;&gt;Enregistrer&lt;/span&gt;&lt;/font&gt;" style="html=1;verticalAlign=bottom;startArrow=oval;startFill=1;endArrow=block;startSize=8;fontSize=25;fontStyle=1" parent="7" edge="1" source="5">
                    <mxGeometry x="-0.001" width="60" relative="1" as="geometry">
                        <mxPoint x="-400.5" y="887" as="sourcePoint"/>
                        <mxPoint x="80" y="887" as="targetPoint"/>
                        <mxPoint as="offset"/>
                    </mxGeometry>
                </mxCell>
                <mxCell id="56" value="" style="html=1;points=[];perimeter=orthogonalPerimeter;fillColor=#60a917;fontColor=#ffffff;strokeColor=#2D7600;fontSize=25;fontStyle=1" parent="7" vertex="1">
                    <mxGeometry x="75" y="170" width="10" height="150" as="geometry"/>
                </mxCell>
                <mxCell id="57" value="" style="html=1;points=[];perimeter=orthogonalPerimeter;fillColor=#60a917;fontColor=#ffffff;strokeColor=#2D7600;fontSize=25;fontStyle=1" parent="7" vertex="1">
                    <mxGeometry x="75" y="520" width="10" height="190" as="geometry"/>
                </mxCell>
                <mxCell id="59" value="" style="html=1;points=[];perimeter=orthogonalPerimeter;fillColor=#60a917;fontColor=#ffffff;strokeColor=#2D7600;fontSize=25;fontStyle=1" parent="7" vertex="1">
                    <mxGeometry x="75" y="890" width="10" height="70" as="geometry"/>
                </mxCell>
                <mxCell id="62" value="" style="html=1;points=[];perimeter=orthogonalPerimeter;fillColor=#60a917;fontColor=#ffffff;strokeColor=#2D7600;fontSize=25;fontStyle=1" parent="7" vertex="1">
                    <mxGeometry x="75" y="1050" width="10" height="70" as="geometry"/>
                </mxCell>
                <mxCell id="63" value="" style="html=1;points=[];perimeter=orthogonalPerimeter;fillColor=#60a917;fontColor=#ffffff;strokeColor=#2D7600;fontSize=25;fontStyle=1" parent="7" vertex="1">
                    <mxGeometry x="75" y="1200" width="10" height="80" as="geometry"/>
                </mxCell>
                <mxCell id="30" value="&lt;font style=&quot;font-size: 25px;&quot;&gt;&lt;span style=&quot;font-size: 25px;&quot;&gt;Invalide&lt;/span&gt;&lt;/font&gt;" style="html=1;verticalAlign=bottom;endArrow=open;dashed=1;endSize=8;fontSize=25;fontStyle=1" parent="7" edge="1">
                    <mxGeometry x="0.0006" relative="1" as="geometry">
                        <mxPoint x="75" y="706" as="sourcePoint"/>
                        <mxPoint x="-770.5" y="706" as="targetPoint"/>
                        <Array as="points">
                            <mxPoint x="-224.5" y="706"/>
                            <mxPoint x="-290" y="706"/>
                        </Array>
                        <mxPoint as="offset"/>
                    </mxGeometry>
                </mxCell>
                <mxCell id="8" value="" style="shape=umlLifeline;participant=umlEntity;perimeter=lifelinePerimeter;whiteSpace=wrap;html=1;container=1;collapsible=0;recursiveResize=0;verticalAlign=top;spacingTop=36;outlineConnect=0;size=120;fillColor=#d80073;fontColor=#ffffff;strokeColor=#A50040;fontSize=25;fontStyle=1" parent="1" vertex="1">
                    <mxGeometry x="2200" y="40" width="160" height="1960" as="geometry"/>
                </mxCell>
                <mxCell id="24" value="&lt;font style=&quot;font-size: 25px;&quot;&gt;&lt;span style=&quot;font-size: 25px;&quot;&gt;Generatreur De XML&lt;/span&gt;&lt;/font&gt;" style="text;strokeColor=none;align=center;fillColor=none;html=1;verticalAlign=middle;whiteSpace=wrap;rounded=0;fontSize=25;fontStyle=1" parent="8" vertex="1">
                    <mxGeometry x="50" y="50" width="60" height="30" as="geometry"/>
                </mxCell>
                <mxCell id="64" value="" style="html=1;points=[];perimeter=orthogonalPerimeter;fillColor=#d80073;fontColor=#ffffff;strokeColor=#A50040;fontSize=25;fontStyle=1" parent="8" vertex="1">
                    <mxGeometry x="75" y="800" width="10" height="40" as="geometry"/>
                </mxCell>
                <mxCell id="65" value="" style="html=1;points=[];perimeter=orthogonalPerimeter;fillColor=#d80073;fontColor=#ffffff;strokeColor=#A50040;fontSize=25;fontStyle=1" parent="8" vertex="1">
                    <mxGeometry x="75" y="1350" width="10" height="50" as="geometry"/>
                </mxCell>
                <mxCell id="9" value="&lt;font style=&quot;font-size: 25px;&quot;&gt;&lt;span style=&quot;font-size: 25px;&quot;&gt;Converteur&lt;br&gt;&lt;/span&gt;&lt;/font&gt;" style="shape=umlLifeline;participant=umlEntity;perimeter=lifelinePerimeter;whiteSpace=wrap;html=1;container=1;collapsible=0;recursiveResize=0;verticalAlign=top;spacingTop=36;outlineConnect=0;size=120;fillColor=#0050ef;fontColor=#ffffff;strokeColor=#001DBC;fontSize=25;fontStyle=1" parent="1" vertex="1">
                    <mxGeometry x="2799" y="40" width="160" height="1960" as="geometry"/>
                </mxCell>
                <mxCell id="66" value="" style="html=1;points=[];perimeter=orthogonalPerimeter;fillColor=#0050ef;fontColor=#ffffff;strokeColor=#001DBC;fontSize=25;fontStyle=1" parent="9" vertex="1">
                    <mxGeometry x="75" y="1640" width="10" height="160" as="geometry"/>
                </mxCell>
                <mxCell id="11" value="&lt;font style=&quot;font-size: 25px;&quot;&gt;&lt;span style=&quot;font-size: 25px;&quot;&gt;inserer le nombre des classes&amp;nbsp;nÃ©cessaires&lt;/span&gt;&lt;/font&gt;" style="html=1;verticalAlign=bottom;startArrow=oval;endArrow=block;startSize=8;fontSize=25;fontStyle=1" parent="1" target="5" edge="1">
                    <mxGeometry x="-0.1895" y="10" relative="1" as="geometry">
                        <mxPoint x="60" y="200" as="sourcePoint"/>
                        <mxPoint x="120" y="200" as="targetPoint"/>
                        <mxPoint as="offset"/>
                    </mxGeometry>
                </mxCell>
                <mxCell id="15" value="&lt;font style=&quot;font-size: 25px;&quot;&gt;&lt;span style=&quot;font-size: 25px;&quot;&gt;afficher la page suivant pout inserer les noms&lt;/span&gt;&lt;/font&gt;" style="html=1;verticalAlign=bottom;endArrow=open;dashed=1;endSize=8;fontSize=25;fontStyle=1" parent="1" target="3" edge="1" source="5">
                    <mxGeometry relative="1" as="geometry">
                        <mxPoint x="470" y="280" as="sourcePoint"/>
                        <mxPoint x="260" y="270" as="targetPoint"/>
                        <Array as="points">
                            <mxPoint x="270" y="280"/>
                        </Array>
                        <mxPoint as="offset"/>
                    </mxGeometry>
                </mxCell>
                <mxCell id="16" value="&lt;font style=&quot;font-size: 25px;&quot;&gt;&lt;span style=&quot;font-size: 25px;&quot;&gt;erreur&lt;/span&gt;&lt;/font&gt;" style="html=1;verticalAlign=bottom;endArrow=open;dashed=1;endSize=8;fontSize=25;fontStyle=1" parent="1" source="5" target="3" edge="1">
                    <mxGeometry x="-0.0177" relative="1" as="geometry">
                        <mxPoint x="340" y="270" as="sourcePoint"/>
                        <mxPoint x="260" y="270" as="targetPoint"/>
                        <Array as="points">
                            <mxPoint x="380" y="360"/>
                            <mxPoint x="160" y="360"/>
                        </Array>
                        <mxPoint as="offset"/>
                    </mxGeometry>
                </mxCell>
                <mxCell id="20" value="&lt;font style=&quot;font-size: 25px;&quot;&gt;&lt;span style=&quot;font-size: 25px;&quot;&gt;Verifier si le nombre est valid&lt;/span&gt;&lt;/font&gt;" style="html=1;verticalAlign=bottom;startArrow=oval;startFill=1;endArrow=block;startSize=8;fontSize=25;fontStyle=1" parent="1" target="7" edge="1">
                    <mxGeometry width="60" relative="1" as="geometry">
                        <mxPoint x="850" y="206" as="sourcePoint"/>
                        <mxPoint x="700" y="270" as="targetPoint"/>
                    </mxGeometry>
                </mxCell>
                <mxCell id="21" value="&lt;font style=&quot;font-size: 25px;&quot;&gt;&lt;span style=&quot;font-size: 25px;&quot;&gt;nombre Valide&lt;/span&gt;&lt;/font&gt;" style="html=1;verticalAlign=bottom;endArrow=open;dashed=1;endSize=8;exitX=0.5;exitY=0.407;exitDx=0;exitDy=0;exitPerimeter=0;entryX=-0.315;entryY=0.043;entryDx=0;entryDy=0;entryPerimeter=0;fontSize=25;fontStyle=1" parent="1" source="56" edge="1" target="55">
                    <mxGeometry relative="1" as="geometry">
                        <mxPoint x="950" y="271" as="sourcePoint"/>
                        <mxPoint x="860" y="271" as="targetPoint"/>
                        <Array as="points"/>
                    </mxGeometry>
                </mxCell>
                <mxCell id="22" value="&lt;font style=&quot;font-size: 25px;&quot;&gt;&lt;span style=&quot;font-size: 25px;&quot;&gt;nombre Invalide&lt;/span&gt;&lt;/font&gt;" style="html=1;verticalAlign=bottom;endArrow=open;dashed=1;endSize=8;fontSize=25;fontStyle=1" parent="1" source="7" edge="1">
                    <mxGeometry x="-0.0128" relative="1" as="geometry">
                        <mxPoint x="710" y="270" as="sourcePoint"/>
                        <mxPoint x="850" y="360" as="targetPoint"/>
                        <Array as="points">
                            <mxPoint x="1050" y="360"/>
                            <mxPoint x="890" y="360"/>
                        </Array>
                        <mxPoint as="offset"/>
                    </mxGeometry>
                </mxCell>
                <mxCell id="27" value="&lt;font style=&quot;font-size: 25px;&quot;&gt;&lt;span style=&quot;font-size: 25px;&quot;&gt;Inserer un nom de class&lt;/span&gt;&lt;/font&gt;" style="html=1;verticalAlign=bottom;startArrow=oval;startFill=1;endArrow=block;startSize=8;fontSize=25;fontStyle=1" parent="1" source="3" target="5" edge="1">
                    <mxGeometry width="60" relative="1" as="geometry">
                        <mxPoint x="350" y="430" as="sourcePoint"/>
                        <mxPoint x="410" y="430" as="targetPoint"/>
                        <Array as="points">
                            <mxPoint x="310" y="550"/>
                        </Array>
                    </mxGeometry>
                </mxCell>
                <mxCell id="28" value="&lt;font style=&quot;font-size: 25px;&quot;&gt;&lt;span style=&quot;font-size: 25px;&quot;&gt;verifier si le nom est valide&lt;/span&gt;&lt;/font&gt;" style="html=1;verticalAlign=bottom;startArrow=oval;startFill=1;endArrow=block;startSize=8;fontSize=25;fontStyle=1" parent="1" target="7" edge="1">
                    <mxGeometry width="60" relative="1" as="geometry">
                        <mxPoint x="850" y="560" as="sourcePoint"/>
                        <mxPoint x="850" y="560" as="targetPoint"/>
                        <Array as="points">
                            <mxPoint x="920" y="560"/>
                            <mxPoint x="880" y="560"/>
                            <mxPoint x="850" y="560"/>
                        </Array>
                    </mxGeometry>
                </mxCell>
                <mxCell id="34" value="&lt;font style=&quot;font-size: 25px;&quot;&gt;&lt;span style=&quot;font-size: 25px;&quot;&gt;Erreur&lt;/span&gt;&lt;/font&gt;" style="html=1;verticalAlign=bottom;endArrow=open;dashed=1;endSize=8;fontSize=25;fontStyle=1" parent="1" edge="1" source="5">
                    <mxGeometry relative="1" as="geometry">
                        <mxPoint x="479.5" y="753" as="sourcePoint"/>
                        <mxPoint x="59.5" y="753" as="targetPoint"/>
                        <Array as="points">
                            <mxPoint x="300" y="753"/>
                        </Array>
                    </mxGeometry>
                </mxCell>
                <mxCell id="36" value="&lt;font style=&quot;font-size: 25px;&quot;&gt;&lt;span style=&quot;font-size: 25px;&quot;&gt;Inserer Les Atributes De Class&lt;/span&gt;&lt;/font&gt;" style="html=1;verticalAlign=bottom;startArrow=oval;startFill=1;endArrow=block;startSize=8;fontSize=25;fontStyle=1" parent="1" source="3" target="5" edge="1">
                    <mxGeometry width="60" relative="1" as="geometry">
                        <mxPoint x="350" y="830" as="sourcePoint"/>
                        <mxPoint x="410" y="830" as="targetPoint"/>
                        <Array as="points">
                            <mxPoint x="280" y="920"/>
                        </Array>
                    </mxGeometry>
                </mxCell>
                <mxCell id="37" value="&lt;font style=&quot;font-size: 25px;&quot;&gt;&lt;span style=&quot;font-size: 25px;&quot;&gt;Inserer Les Associations De Class&lt;/span&gt;&lt;/font&gt;" style="html=1;verticalAlign=bottom;startArrow=oval;startFill=1;endArrow=block;startSize=8;fontSize=25;fontStyle=1" parent="1" edge="1">
                    <mxGeometry width="60" relative="1" as="geometry">
                        <mxPoint x="59.5" y="1042" as="sourcePoint"/>
                        <mxPoint x="849.5" y="1042" as="targetPoint"/>
                        <Array as="points">
                            <mxPoint x="300" y="1042"/>
                        </Array>
                        <mxPoint as="offset"/>
                    </mxGeometry>
                </mxCell>
                <mxCell id="38" value="&lt;font style=&quot;font-size: 25px;&quot;&gt;&lt;span style=&quot;font-size: 25px;&quot;&gt;Inserer Les Methodes De Class&lt;/span&gt;&lt;/font&gt;" style="html=1;verticalAlign=bottom;startArrow=oval;startFill=1;endArrow=block;startSize=8;fontSize=25;fontStyle=1" parent="1" edge="1" target="5">
                    <mxGeometry x="0.0965" y="8" width="60" relative="1" as="geometry">
                        <mxPoint x="60" y="1240" as="sourcePoint"/>
                        <mxPoint x="479.5" y="1240" as="targetPoint"/>
                        <Array as="points">
                            <mxPoint x="310" y="1240"/>
                        </Array>
                        <mxPoint as="offset"/>
                    </mxGeometry>
                </mxCell>
                <mxCell id="41" value="&lt;font style=&quot;font-size: 25px;&quot;&gt;&lt;span style=&quot;font-size: 25px;&quot;&gt;Les Attributes Bien Ajouter&lt;/span&gt;&lt;/font&gt;" style="html=1;verticalAlign=bottom;endArrow=open;dashed=1;endSize=8;fontSize=25;fontStyle=1" parent="1" source="7" target="3" edge="1">
                    <mxGeometry x="0.4211" relative="1" as="geometry">
                        <mxPoint x="870" y="1000" as="sourcePoint"/>
                        <mxPoint x="800" y="1000" as="targetPoint"/>
                        <Array as="points">
                            <mxPoint x="950" y="1000"/>
                        </Array>
                        <mxPoint as="offset"/>
                    </mxGeometry>
                </mxCell>
                <mxCell id="42" value="&lt;font style=&quot;font-size: 25px;&quot;&gt;&lt;span style=&quot;font-size: 25px;&quot;&gt;Les Associations Bien Ajouter&lt;/span&gt;&lt;/font&gt;" style="html=1;verticalAlign=bottom;endArrow=open;dashed=1;endSize=8;fontSize=25;fontStyle=1" parent="1" target="3" edge="1" source="62">
                    <mxGeometry x="0.4211" relative="1" as="geometry">
                        <mxPoint x="959.5" y="1160" as="sourcePoint"/>
                        <mxPoint x="470" y="1160" as="targetPoint"/>
                        <Array as="points">
                            <mxPoint x="810" y="1160"/>
                        </Array>
                        <mxPoint as="offset"/>
                    </mxGeometry>
                </mxCell>
                <mxCell id="43" value="&lt;font style=&quot;font-size: 25px;&quot;&gt;&lt;span style=&quot;font-size: 25px;&quot;&gt;Enregistrer&lt;/span&gt;&lt;/font&gt;" style="html=1;verticalAlign=bottom;startArrow=oval;startFill=1;endArrow=block;startSize=8;exitX=0.951;exitY=0.517;exitDx=0;exitDy=0;exitPerimeter=0;fontSize=25;fontStyle=1" parent="1" target="7" edge="1" source="55">
                    <mxGeometry width="60" relative="1" as="geometry">
                        <mxPoint x="880" y="1090" as="sourcePoint"/>
                        <mxPoint x="850" y="1092" as="targetPoint"/>
                    </mxGeometry>
                </mxCell>
                <mxCell id="44" value="&lt;font style=&quot;font-size: 25px;&quot;&gt;&lt;span style=&quot;font-size: 25px;&quot;&gt;Enregistrer&lt;/span&gt;&lt;/font&gt;" style="html=1;verticalAlign=bottom;startArrow=oval;startFill=1;endArrow=block;startSize=8;fontSize=25;fontStyle=1" parent="1" edge="1" target="7">
                    <mxGeometry width="60" relative="1" as="geometry">
                        <mxPoint x="850" y="1245" as="sourcePoint"/>
                        <mxPoint x="1550" y="1245" as="targetPoint"/>
                    </mxGeometry>
                </mxCell>
                <mxCell id="45" value="&lt;font style=&quot;font-size: 25px;&quot;&gt;&lt;span style=&quot;font-size: 25px;&quot;&gt;Les Methodes Bien Ajouter&lt;/span&gt;&lt;/font&gt;" style="html=1;verticalAlign=bottom;endArrow=open;dashed=1;endSize=8;exitX=0.868;exitY=1.002;exitDx=0;exitDy=0;exitPerimeter=0;fontSize=25;fontStyle=1" parent="1" edge="1" source="63">
                    <mxGeometry x="0.4222" relative="1" as="geometry">
                        <mxPoint x="960" y="1320" as="sourcePoint"/>
                        <mxPoint x="60" y="1320" as="targetPoint"/>
                        <Array as="points">
                            <mxPoint x="810.5" y="1320"/>
                        </Array>
                        <mxPoint as="offset"/>
                    </mxGeometry>
                </mxCell>
                <mxCell id="47" value="&lt;font style=&quot;font-size: 25px;&quot;&gt;&lt;span style=&quot;font-size: 25px;&quot;&gt;Fini&lt;/span&gt;&lt;/font&gt;" style="html=1;verticalAlign=bottom;endArrow=open;dashed=1;endSize=8;fontSize=25;fontStyle=1" parent="1" edge="1" source="64">
                    <mxGeometry x="-0.067" relative="1" as="geometry">
                        <mxPoint x="2550" y="879" as="sourcePoint"/>
                        <mxPoint x="849.5" y="879" as="targetPoint"/>
                        <Array as="points">
                            <mxPoint x="2170" y="879"/>
                        </Array>
                        <mxPoint as="offset"/>
                    </mxGeometry>
                </mxCell>
                <mxCell id="48" value="&lt;font style=&quot;font-size: 25px;&quot;&gt;&lt;span style=&quot;font-size: 25px;&quot;&gt;Ecrire Dans XML&lt;/span&gt;&lt;/font&gt;" style="html=1;verticalAlign=bottom;startArrow=oval;startFill=1;endArrow=block;startSize=8;fontSize=25;fontStyle=1" parent="1" edge="1" target="65">
                    <mxGeometry width="60" relative="1" as="geometry">
                        <mxPoint x="849.3235294117649" y="1394" as="sourcePoint"/>
                        <mxPoint x="2280" y="1394" as="targetPoint"/>
                    </mxGeometry>
                </mxCell>
                <mxCell id="49" value="&lt;font style=&quot;font-size: 25px;&quot;&gt;&lt;span style=&quot;font-size: 25px;&quot;&gt;Fini&lt;/span&gt;&lt;/font&gt;" style="html=1;verticalAlign=bottom;endArrow=open;dashed=1;endSize=8;fontSize=25;fontStyle=1" parent="1" edge="1" source="65">
                    <mxGeometry x="0.0439" y="-9" relative="1" as="geometry">
                        <mxPoint x="2545" y="1439" as="sourcePoint"/>
                        <mxPoint x="849.5" y="1439" as="targetPoint"/>
                        <mxPoint as="offset"/>
                    </mxGeometry>
                </mxCell>
                <mxCell id="50" value="&lt;font style=&quot;font-size: 25px;&quot;&gt;&lt;span style=&quot;font-size: 25px;&quot;&gt;Insertion des Donnes Est Fini&lt;/span&gt;&lt;/font&gt;" style="html=1;verticalAlign=bottom;endArrow=open;dashed=1;endSize=8;fontSize=25;fontStyle=1" parent="1" edge="1" source="5">
                    <mxGeometry x="0.0656" relative="1" as="geometry">
                        <mxPoint x="820" y="1519" as="sourcePoint"/>
                        <mxPoint x="59.5" y="1519" as="targetPoint"/>
                        <Array as="points">
                            <mxPoint x="680" y="1519"/>
                        </Array>
                        <mxPoint x="1" as="offset"/>
                    </mxGeometry>
                </mxCell>
                <mxCell id="52" value="&lt;font style=&quot;font-size: 25px;&quot;&gt;&lt;span style=&quot;font-size: 25px;&quot;&gt;GÃ©nÃ©rer Le Code a partir de l'XML&lt;/span&gt;&lt;/font&gt;" style="html=1;verticalAlign=bottom;startArrow=oval;startFill=1;endArrow=block;startSize=8;fontSize=25;fontStyle=1" parent="1" source="3" target="9" edge="1">
                    <mxGeometry width="60" relative="1" as="geometry">
                        <mxPoint x="450" y="1600" as="sourcePoint"/>
                        <mxPoint x="980" y="1610" as="targetPoint"/>
                        <Array as="points">
                            <mxPoint x="1700" y="1680"/>
                        </Array>
                    </mxGeometry>
                </mxCell>
                <mxCell id="54" value="&lt;font style=&quot;font-size: 25px;&quot;&gt;&lt;span style=&quot;font-size: 25px;&quot;&gt;Afficher les fichier de code&amp;nbsp; a l'interface&lt;/span&gt;&lt;/font&gt;" style="html=1;verticalAlign=bottom;endArrow=open;dashed=1;endSize=8;fontSize=25;fontStyle=1" parent="1" source="9" target="3" edge="1">
                    <mxGeometry relative="1" as="geometry">
                        <mxPoint x="1990" y="1800" as="sourcePoint"/>
                        <mxPoint x="100" y="1840" as="targetPoint"/>
                        <Array as="points">
                            <mxPoint x="120" y="1840"/>
                        </Array>
                        <mxPoint as="offset"/>
                    </mxGeometry>
                </mxCell>
                <mxCell id="46" value="&lt;font style=&quot;font-size: 25px;&quot;&gt;&lt;span style=&quot;font-size: 25px;&quot;&gt;Ecrirce Dans XML&lt;/span&gt;&lt;/font&gt;" style="html=1;verticalAlign=bottom;startArrow=oval;startFill=1;endArrow=block;startSize=8;fontSize=25;fontStyle=1;entryX=0.02;entryY=0.165;entryDx=0;entryDy=0;entryPerimeter=0;" parent="1" edge="1">
                    <mxGeometry width="60" relative="1" as="geometry">
                        <mxPoint x="849.3235294117653" y="837" as="sourcePoint"/>
                        <mxPoint x="2275.2" y="842.5999999999999" as="targetPoint"/>
                        <Array as="points">
                            <mxPoint x="1070" y="837"/>
                        </Array>
                    </mxGeometry>
                </mxCell>
                <mxCell id="33" value="&lt;font style=&quot;font-size: 25px;&quot;&gt;&lt;span style=&quot;font-size: 25px;&quot;&gt;La Class suivant&amp;nbsp;&lt;/span&gt;&lt;/font&gt;" style="html=1;verticalAlign=bottom;endArrow=open;dashed=1;endSize=8;fontSize=25;fontStyle=1" parent="1" edge="1" target="3" source="5">
                    <mxGeometry x="-0.0108" y="-10" relative="1" as="geometry">
                        <mxPoint x="847.5" y="648" as="sourcePoint"/>
                        <mxPoint x="100" y="650" as="targetPoint"/>
                        <Array as="points">
                            <mxPoint x="530" y="650"/>
                        </Array>
                        <mxPoint x="1" as="offset"/>
                    </mxGeometry>
                </mxCell>
                <mxCell id="75" value="&lt;font style=&quot;font-size: 25px;&quot;&gt;&lt;span style=&quot;font-size: 25px;&quot;&gt;Valide&lt;/span&gt;&lt;/font&gt;" style="html=1;verticalAlign=bottom;endArrow=open;dashed=1;endSize=8;fontSize=25;fontStyle=1" edge="1" parent="1" source="57" target="5">
                    <mxGeometry relative="1" as="geometry">
                        <mxPoint x="1270" y="660" as="sourcePoint"/>
                        <mxPoint x="1190" y="660" as="targetPoint"/>
                        <Array as="points">
                            <mxPoint x="1390" y="640"/>
                        </Array>
                    </mxGeometry>
                </mxCell>
                <mxCell id="79" value="Alt" style="shape=umlFrame;whiteSpace=wrap;html=1;strokeWidth=3;fontSize=25;fillColor=#6a00ff;fontColor=#ffffff;strokeColor=#3700CC;fontStyle=1" vertex="1" parent="1">
                    <mxGeometry x="-25" y="240" width="1750" height="200" as="geometry"/>
                </mxCell>
                <mxCell id="80" value="alt" style="shape=umlFrame;whiteSpace=wrap;html=1;strokeWidth=3;fontSize=25;fillColor=#6a00ff;fontColor=#ffffff;strokeColor=#3700CC;fontStyle=1" vertex="1" parent="1">
                    <mxGeometry x="-25" y="600" width="1755" height="170" as="geometry"/>
                </mxCell>
                <mxCell id="82" value="loop" style="shape=umlFrame;whiteSpace=wrap;html=1;strokeWidth=3;fontSize=25;fillColor=#008a00;fontColor=#ffffff;strokeColor=#005700;fontStyle=1" vertex="1" parent="1">
                    <mxGeometry x="-80" y="890" width="1850" height="450" as="geometry"/>
                </mxCell>
                <mxCell id="81" value="loop" style="shape=umlFrame;whiteSpace=wrap;html=1;strokeWidth=3;fontSize=25;fillColor=#008a00;strokeColor=#005700;fontColor=#ffffff;fontStyle=1" vertex="1" parent="1">
                    <mxGeometry x="-80" y="500" width="1830" height="295" as="geometry"/>
                </mxCell>
            </root>
        </mxGraphModel>
    </diagram>
</mxfile>